<svg height="200px" width="200px" version="1.1" id="Layer_1" xmlns="http://www.w3.org/2000/svg" xmlns:xlink="http://www.w3.org/1999/xlink" viewBox="0 0 512.332 512.332" xml:space="preserve" fill="#000000"><g id="SVGRepo_bgCarrier" stroke-width="0"></g><g id="SVGRepo_tracerCarrier" stroke-linecap="round" stroke-linejoin="round"></g><g id="SVGRepo_iconCarrier"> <g transform="translate(1 1)"> <path style="fill:#1997d7;" d="M267.207,18.793v0.853c0.853,13.653,17.067,15.36,21.333,2.56v-0.853 c4.267-14.507,22.187-9.387,21.333,5.12v0.853c-0.853,13.653,14.507,19.627,20.48,7.68v-0.853 c6.827-12.8,23.893-4.267,19.627,10.24v0.853c-3.413,12.8,10.24,22.187,17.92,11.947l0.853-0.853 c8.533-11.093,23.893,1.707,17.067,14.507v0.853c-5.973,11.947,5.973,24.747,15.36,16.213h0.853 c10.24-8.533,23.04,7.68,14.507,18.773l0,0c-7.68,10.24,1.707,25.6,12.8,19.627l0,0c11.947-5.973,21.333,12.8,11.093,21.333l0,0 c-9.387,7.68-2.56,25.6,8.533,22.187l0,0c12.8-3.413,18.773,17.92,6.827,23.893l0,0c-11.093,5.12-7.68,23.893,4.267,23.893l0,0 c12.8,0,15.36,21.333,2.56,24.747l0,0c-11.093,2.56-11.093,21.333,0,24.747l0,0c12.8,3.413,11.093,24.747-2.56,24.747l0,0 c-11.947,0-15.36,18.773-4.267,23.893l0,0c11.947,5.973,5.973,26.453-6.827,23.893l0,0c-11.093-2.56-17.92,14.507-8.533,22.187l0,0 c10.24,8.533,0.853,27.307-11.093,21.333l0,0c-11.093-5.12-20.48,10.24-12.8,19.627l0,0c8.533,11.093-3.413,27.307-14.507,18.773 h-0.853c-9.387-7.68-21.333,5.12-15.36,16.213v0.853c6.827,12.8-8.533,25.6-17.067,14.507l-0.853-0.853 c-7.68-10.24-22.187-0.853-17.92,11.947v0.853c4.267,14.507-12.8,23.04-19.627,10.24v-0.853c-5.973-11.947-21.333-5.973-20.48,7.68 v0.853c1.707,15.36-17.067,19.627-21.333,5.12v-0.853c-3.413-12.8-19.627-11.093-21.333,2.56v0.853 c-1.707,15.36-20.48,15.36-21.333,0v-0.853c-0.853-13.653-17.067-15.36-21.333-2.56v0.853c-4.267,14.507-22.187,9.387-21.333-5.12 v-0.853c0.853-13.653-14.507-19.627-20.48-7.68v0.853c-6.827,12.8-23.893,4.267-19.627-10.24v-0.853 c3.413-12.8-10.24-22.187-17.92-11.947l-0.853,0.853c-8.533,11.093-23.893-1.707-17.067-14.507v-0.853 c5.973-11.947-5.973-24.747-15.36-16.213h-0.853c-10.24,8.533-23.04-7.68-14.507-18.773l0,0c7.68-10.24-1.707-25.6-12.8-19.627l0,0 c-11.947,5.973-21.333-12.8-11.093-21.333l0,0c9.387-7.68,2.56-25.6-8.533-22.187l0,0c-12.8,3.413-18.773-17.92-6.827-23.893l0,0 c11.093-5.12,7.68-23.893-4.267-23.893l0,0c-12.8,0-15.36-21.333-2.56-24.747l0,0c11.093-2.56,11.093-21.333,0-24.747l0,0 c-12.8-3.413-11.093-24.747,2.56-24.747l0,0c11.947,0,15.36-18.773,4.267-23.893l0,0c-11.947-5.973-5.973-26.453,6.827-23.893l0,0 c11.093,2.56,17.92-14.507,8.533-22.187l0,0c-10.24-8.533-0.853-27.307,11.093-21.333l0,0c11.093,5.12,20.48-10.24,12.8-19.627l0,0 c-8.533-11.093,3.413-27.307,14.507-18.773h0.853c9.387,7.68,21.333-5.12,15.36-16.213v-0.853 c-6.827-12.8,8.533-25.6,17.067-14.507l0.853,0.853c7.68,10.24,22.187,0.853,17.92-11.947v-0.853 c-4.267-14.507,12.8-23.04,19.627-10.24v0.853c5.973,11.947,21.333,5.973,20.48-7.68v-0.853 c-1.707-15.36,17.067-19.627,21.333-5.12v0.853c3.413,12.8,19.627,11.093,21.333-2.56v-0.853 C246.727,4.286,265.5,4.286,267.207,18.793"></path> <g> <path style="fill:#FFFFFF;" d="M96.54,403.646L96.54,403.646c7.68-10.24-1.707-25.6-11.947-20.48l0,0 c-11.947,5.973-21.333-12.8-11.093-21.333l0,0c9.387-7.68,2.56-25.6-8.533-22.187l0,0c-12.8,3.413-18.773-17.92-6.827-23.893l0,0 c11.093-5.12,7.68-23.893-4.267-23.893l0,0c-12.8,0-15.36-21.333-2.56-24.747c11.093-2.56,11.093-21.333,0-24.747 c-12.8-3.413-11.093-24.747,2.56-24.747l0,0c11.947,0,15.36-18.773,4.267-23.893l0,0c-11.947-5.973-5.973-26.453,6.827-23.893l0,0 c11.093,2.56,17.92-14.507,8.533-22.187l0,0c-10.24-8.533-0.853-27.307,11.093-21.333l0,0c11.093,5.12,20.48-10.24,12.8-19.627 l0,0c-4.267-5.12-3.413-11.093-0.853-15.36c-2.56,0-5.12-0.853-7.68-2.56h-0.853c-11.947-8.533-26.453,7.68-17.067,18.773l0,0 c9.387,10.24-1.707,25.6-14.507,19.627l0,0c-13.653-5.973-24.747,12.8-12.8,21.333l0,0c11.093,7.68,3.413,25.6-10.24,22.187l0,0 c-14.507-3.413-21.333,17.92-7.68,23.893l0,0c12.8,5.12,8.533,23.893-5.12,23.893l0,0c-15.36,0-17.067,21.333-2.56,24.747l0,0 c13.653,2.56,13.653,21.333,0,24.747l0,0c-14.507,3.413-12.8,24.747,2.56,24.747l0,0c13.653,0,17.92,18.773,5.12,23.893l0,0 c-13.653,5.973-6.827,26.453,7.68,23.893l0,0c13.653-2.56,21.333,14.507,10.24,22.187l0,0c-11.947,8.533-1.707,27.307,12.8,21.333 l0,0c12.8-5.12,23.893,10.24,14.507,19.627l0,0c-10.24,11.093,4.267,27.307,17.067,18.773h0.853c2.56-1.707,5.12-2.56,7.68-2.56 C93.127,414.739,92.274,408.766,96.54,403.646"></path> <path style="fill:#FFFFFF;" d="M145.18,58.046c7.68,9.387,21.333,0,17.92-12.8v-0.853c-1.707-5.973,0.853-11.093,4.267-14.507 c-8.533-5.973-23.04,1.707-18.773,14.507v0.853C149.447,50.366,147.74,54.633,145.18,58.046"></path> <path style="fill:#FFFFFF;" d="M106.78,71.699c2.56,5.12,1.707,10.24-0.853,13.653c1.707,0,3.413,0.853,5.12,2.56h0.853 c9.387,7.68,21.333-5.12,15.36-16.213v-0.853c-2.56-5.12-1.707-10.24,0.853-13.653c0,0,0,0-0.853,0l-0.853-0.853 C116.167,46.099,98.247,58.899,106.78,71.699L106.78,71.699z"></path> </g> <g> <path style="fill:#1997d7;" d="M384.967,71.699L384.967,71.699c-5.973,11.947,5.973,24.747,15.36,17.067h0.853 c1.707-1.707,3.413-2.56,5.12-2.56c-2.56-3.413-3.413-8.533-0.853-13.653v-0.853c7.68-12.8-10.24-25.6-20.48-14.507l-0.853,0.853 c0,0,0,0-0.853,0C387.527,61.459,387.527,66.579,384.967,71.699"></path> <path style="fill:#1997d7;" d="M349.127,44.393L349.127,44.393c-3.413,13.653,10.24,23.04,17.92,13.653 c-3.413-3.413-5.12-7.68-3.413-12.8v-0.853c4.267-11.947-10.24-20.48-18.773-14.507C349.127,33.299,350.834,38.419,349.127,44.393 "></path> <path style="fill:#1997d7;" d="M367.047,452.286c-7.68-9.387-21.333,0-17.92,12.8v0.853c1.707,5.973-0.853,11.093-4.267,14.507 c8.533,5.973,23.04-1.707,18.773-14.507v-0.853C362.78,459.966,364.487,455.699,367.047,452.286"></path> </g> <path style="fill:#FFFFFF;" d="M127.26,438.633L127.26,438.633c5.973-11.947-5.973-24.747-15.36-17.067h-0.853 c-1.707,1.707-3.413,2.56-5.12,2.56c2.56,3.413,3.413,8.533,0.853,13.653v0.853c-7.68,12.8,10.24,25.6,20.48,14.507l0.853-0.853 c0,0,0,0,0.853,0C124.7,448.873,124.7,443.753,127.26,438.633"></path> <g> <path style="fill:#1997d7;" d="M493.34,267.113L493.34,267.113c-13.653-2.56-13.653-21.333,0-24.747l0,0 c14.507-3.413,12.8-24.747-2.56-24.747l0,0c-13.653,0-17.92-18.773-5.12-23.893l0,0c13.653-5.973,6.827-26.453-7.68-23.893l0,0 c-13.653,2.56-21.333-14.507-10.24-22.187l0,0c11.947-8.533,1.707-27.307-12.8-21.333l0,0c-12.8,5.12-23.893-10.24-14.507-19.627 l0,0c10.24-11.093-4.267-27.307-17.067-18.773h-0.853c-2.56,1.707-5.12,2.56-7.68,2.56c2.56,4.267,3.413,10.24-0.853,15.36l0,0 c-7.68,10.24,1.707,25.6,12.8,19.627l0,0c11.947-5.973,21.333,12.8,11.093,21.333l0,0c-9.387,7.68-2.56,25.6,8.533,22.187l0,0 c12.8-3.413,18.773,17.92,6.827,23.893l0,0c-11.093,5.12-7.68,23.893,4.267,23.893l0,0c12.8,0,15.36,21.333,2.56,24.747 c-11.093,2.56-11.093,21.333,0,24.747c12.8,3.413,11.093,24.747-2.56,24.747l0,0c-11.947,0-15.36,18.773-4.267,23.893l0,0 c11.947,5.973,5.973,26.453-6.827,23.893l0,0c-11.093-2.56-17.92,14.507-8.533,22.187l0,0c10.24,8.533,0.853,27.307-11.093,21.333 l0,0c-11.093-5.12-20.48,10.24-12.8,19.627l0,0c4.267,5.12,3.413,11.093,0.853,15.36c2.56,0,5.12,0.853,7.68,2.56h0.853 c11.947,8.533,26.453-7.68,17.067-18.773l0,0c-9.387-10.24,1.707-25.6,14.507-19.627l0,0c13.653,5.973,24.747-12.8,12.8-21.333 l0,0c-11.093-7.68-3.413-25.6,10.24-22.187l0,0c14.507,3.413,21.333-17.92,7.68-23.893l0,0c-12.8-5.12-8.533-23.893,5.12-23.893 l0,0C506.14,291.859,508.7,270.526,493.34,267.113"></path> <path style="fill:#1997d7;" d="M405.447,438.633c-2.56-5.12-1.707-10.24,0.853-13.653c-1.707,0-3.413-0.853-5.12-2.56h-0.853 c-9.387-7.68-21.333,5.12-15.36,16.213v0.853c2.56,5.12,1.707,10.24-0.853,13.653c0,0,0,0,0.853,0l0.853,0.853 C396.06,464.233,413.98,451.433,405.447,438.633L405.447,438.633z"></path> </g> <path style="fill:#FFFFFF;" d="M163.1,465.939L163.1,465.939c3.413-13.653-10.24-23.04-17.92-13.653 c3.413,3.413,5.12,7.68,3.413,12.8v0.853c-4.267,11.947,10.24,20.48,18.773,14.507C163.1,477.033,161.394,471.913,163.1,465.939"></path> <path style="fill:#1997d7;" d="M367.047,255.166c0,61.44-49.493,110.933-110.933,110.933S145.18,316.606,145.18,255.166 s49.493-110.933,110.933-110.933S367.047,193.726,367.047,255.166"></path> <path style="fill:#63D3FD;" d="M341.447,255.166c0,61.44-43.52,110.933-98.133,110.933s-98.133-49.493-98.133-110.933 s43.52-110.933,98.133-110.933S341.447,193.726,341.447,255.166"></path> <path style="fill:#1997d7;" d="M281.714,255.166c0,14.507-11.093,25.6-25.6,25.6c-14.507,0-25.6-11.093-25.6-25.6 s11.093-25.6,25.6-25.6C270.62,229.566,281.714,240.659,281.714,255.166"></path> <path d="M256.114,511.166L256.114,511.166c-11.093,0-19.627-7.68-21.333-18.773v-0.853c0-2.56-2.56-3.413-3.413-3.413 c-0.853,0-3.413,0-4.267,2.56v0.853c-3.413,10.24-13.653,16.213-24.747,13.653c-11.093-2.56-17.92-11.947-16.213-23.04v-0.853 c0-2.56-1.707-3.413-2.56-4.267c-0.853,0-3.413-0.853-5.12,1.707l-0.853,0.853c-5.12,9.387-17.067,12.8-26.453,8.533 c-10.24-4.267-14.507-15.36-11.093-25.6c0.853-3.413-0.853-5.12-1.707-5.12c-0.853-0.853-3.413-1.707-5.12,0.853l-0.853,0.853 c-7.68,8.533-18.773,9.387-28.16,2.56c-8.533-6.827-11.093-17.92-5.973-27.307c1.707-2.56,0-4.267-0.853-5.12 c-0.853-0.853-2.56-1.707-5.12,0c-8.533,5.973-20.48,5.12-27.307-3.413c-7.68-8.533-7.68-19.627,0-28.16 c1.707-2.56,0.853-4.267,0.853-5.12c-1.707-0.853-2.56-2.56-5.12-0.853c-10.24,4.267-22.187,0.853-27.307-8.533 s-2.56-21.333,5.973-27.307c2.56-1.707,1.707-3.413,1.707-5.12c-0.853-0.853-1.707-2.56-4.267-2.56 c-11.093,2.56-21.333-3.413-24.747-14.507c-3.413-10.24,1.707-21.333,11.947-25.6c1.707-0.853,1.707-3.413,0.853-4.267 c0-0.853-0.853-3.413-4.267-3.413l0,0c-11.093,0-19.627-7.68-21.333-18.773c-0.853-11.093,5.973-20.48,16.213-23.04 c2.56-0.853,3.413-2.56,3.413-4.267c0-0.853,0-3.413-3.413-4.267c-11.093-2.56-17.92-11.947-16.213-23.04 c0.853-11.093,10.24-18.773,21.333-18.773l0,0c2.56,0,3.413-1.707,4.267-3.413c0-0.853,0-3.413-2.56-4.267 c-10.24-4.267-15.36-15.36-11.947-25.6s13.653-16.213,24.747-14.507c3.413,0.853,4.267-0.853,5.12-2.56 c0.853-0.853,0.853-3.413-1.707-5.12c-9.387-6.827-11.947-17.92-5.973-27.307c5.12-9.387,17.067-13.653,26.453-8.533 c2.56,1.707,4.267,0,5.12-0.853c0.853-0.853,1.707-2.56,0-5.12c-7.68-8.533-7.68-20.48,0-28.16 c7.68-8.533,18.773-9.387,28.16-3.413c2.56,1.707,4.267,0.853,5.973,0c0.853-0.853,2.56-2.56,0.853-5.12 c-5.973-10.24-3.413-21.333,5.12-28.16s20.48-5.12,28.16,2.56c2.56,2.56,4.267,1.707,5.973,1.707 c0.853-0.853,2.56-1.707,1.707-4.267c-3.413-11.093,0.853-22.187,11.093-26.453c10.24-4.267,21.333-0.853,27.307,8.533l0.853,0.853 c0.853,4.267,2.56,4.267,4.267,3.413c0.853,0,3.413-1.707,2.56-4.267v-0.853c-0.853-11.093,5.973-20.48,16.213-23.04 c11.093-2.56,21.333,3.413,24.747,13.653v0.853c0.853,2.56,3.413,2.56,4.267,2.56c0.853,0,3.413-0.853,3.413-3.413v-0.853 c1.707-10.24,10.24-17.92,21.333-17.92c11.093,0,19.627,7.68,21.333,18.773v0.853c0,2.56,2.56,3.413,3.413,3.413 s3.413,0,4.267-2.56v-0.853c3.413-10.24,13.653-16.213,24.747-14.507c11.093,2.56,17.92,11.947,16.213,23.04v0.853 c0,2.56,1.707,4.267,2.56,4.267c0.853,0,3.413,0.853,5.12-1.707l0.853-0.853c5.12-9.387,17.067-12.8,26.453-8.533 c10.24,4.267,14.507,15.36,11.093,25.6c-0.853,3.413,0.853,5.12,1.707,5.12c0.853,0.853,3.413,1.707,5.12-0.853l0.853-0.853 c7.68-8.533,18.773-9.387,28.16-2.56c8.533,6.827,11.093,17.92,5.973,27.307c-1.707,2.56,0,4.267,0.853,5.12 c0.853,0.853,2.56,1.707,5.12,0c8.533-5.12,20.48-4.267,27.307,4.267c7.68,8.533,7.68,19.627,0,28.16 c-1.707,2.56-0.853,4.267-0.853,5.12c0.853,0.853,2.56,2.56,5.12,1.707c10.24-4.267,21.333-0.853,27.307,8.533 c5.12,9.387,2.56,21.333-5.973,27.307c-2.56,1.707-1.707,3.413-1.707,5.12c0.853,0.853,1.707,2.56,4.267,2.56 c11.093-2.56,21.333,3.413,24.747,14.507c3.413,10.24-1.707,21.333-11.947,25.6c-2.56,0.853-2.56,3.413-2.56,4.267 c0,0.853,0.853,3.413,4.267,3.413l0,0l0,0c11.093,0,19.627,7.68,21.333,18.773c0.853,11.093-5.973,20.48-17.067,23.04 c-2.56,0.853-3.413,2.56-3.413,4.267c0,0.853,0,3.413,3.413,4.267c11.093,2.56,17.92,11.947,17.067,23.04 s-10.24,18.773-21.333,18.773l0,0l0,0c-2.56,0-3.413,1.707-4.267,3.413c0,0.853,0,3.413,2.56,4.267 c10.24,4.267,15.36,15.36,11.947,25.6c-3.413,10.24-13.653,16.213-24.747,14.507c-2.56-0.853-4.267,0.853-5.12,2.56 c-0.853,0.853-0.853,3.413,1.707,5.12c9.387,6.827,11.947,17.92,5.973,27.307c-5.12,9.387-17.067,13.653-26.453,8.533 c-2.56-1.707-4.267,0-5.12,0.853c-0.853,0.853-1.707,2.56,0,5.12c7.68,8.533,7.68,20.48,0,28.16 c-7.68,8.533-18.773,9.387-28.16,3.413c-2.56-1.707-4.267-0.853-5.973,0c-0.853,0.853-2.56,2.56-0.853,5.12 c5.973,10.24,3.413,21.333-5.12,28.16s-20.48,5.12-28.16-2.56c-2.56-2.56-4.267-1.707-5.973-1.707 c-0.853,0.853-2.56,1.707-1.707,4.267c3.413,11.093-0.853,22.187-11.093,26.453c-10.24,4.267-21.333,0.853-26.453-8.533 l-0.853-0.853c-1.707-2.56-3.413-2.56-5.12-1.707c-0.853,0-3.413,1.707-2.56,4.267v0.853c0.853,11.093-5.973,20.48-16.213,23.04 c-11.093,2.56-21.333-3.413-24.747-13.653v-0.853c-0.853-2.56-3.413-2.56-4.267-2.56c-0.853,0-3.413,0.853-3.413,3.413v0.853 C275.74,503.486,267.207,511.166,256.114,511.166z M230.514,471.059c0.853,0,1.707,0,2.56,0c10.24,0.853,17.92,8.533,18.773,18.773 v0.853c0,2.56,2.56,3.413,4.267,3.413l0,0c1.707,0,3.413-0.853,4.267-3.413v-0.853c0.853-10.24,8.533-17.92,18.773-18.773 c10.24-0.853,18.773,5.12,22.187,14.507v0.853c0.853,2.56,3.413,2.56,4.267,2.56c1.707,0,3.413-1.707,3.413-4.267v-0.853 c-0.853-10.24,4.267-18.773,14.507-22.187c9.387-3.413,19.627,0.853,24.747,9.387l0.853,0.853c1.707,2.56,4.267,2.56,5.12,1.707 c1.707-0.853,3.413-1.707,2.56-5.12c-3.413-10.24,0-20.48,9.387-25.6c8.533-5.12,19.627-3.413,26.453,4.267 c2.56,2.56,5.12,1.707,5.973,0.853c1.707-0.853,2.56-2.56,0.853-5.12c-5.12-9.387-3.413-19.627,3.413-26.453 c7.68-6.827,17.92-7.68,26.453-1.707c3.413,2.56,5.12,0.853,5.973,0s1.707-3.413,0-5.12c-6.827-7.68-7.68-18.773-1.707-26.453 c5.973-8.533,16.213-11.093,25.6-6.827c3.413,1.707,5.12,0,5.12-1.707c0.853-1.707,0.853-3.413-0.853-5.12 c-8.533-5.973-11.093-16.213-6.827-25.6s13.653-14.507,23.893-11.947c3.413,0.853,4.267-1.707,5.12-2.56 c0.853-1.707,0.853-3.413-2.56-5.12c-9.387-4.267-14.507-13.653-11.947-23.893c1.707-10.24,10.24-17.067,20.48-17.067l0,0l0,0 c3.413,0,4.267-2.56,4.267-3.413c0-1.707,0-3.413-3.413-4.267c-10.24-1.707-17.067-10.24-17.067-20.48s6.827-18.773,17.067-20.48 c2.56-0.853,3.413-2.56,3.413-4.267c0-1.707-0.853-3.413-4.267-3.413l0,0l0,0c-10.24,0-18.773-6.827-20.48-17.067 c-1.707-10.24,2.56-19.627,11.947-23.893c2.56-0.853,2.56-3.413,2.56-5.12c0-0.853-1.707-3.413-4.267-2.56 c-10.24,2.56-19.627-2.56-23.893-11.947c-4.267-9.387-1.707-19.627,6.827-25.6c2.56-1.707,1.707-4.267,0.853-5.12 c-0.853-0.853-2.56-2.56-5.12-1.707c-9.387,4.267-20.48,1.707-26.453-6.827c-5.973-8.533-5.12-18.773,1.707-26.453 c2.56-2.56,1.707-4.267,0-5.12c-0.853-0.853-2.56-2.56-5.12-0.853c-8.533,5.973-19.627,5.973-27.307-0.853 c-7.68-6.827-9.387-17.067-4.267-26.453c1.707-3.413,0.853-4.267-0.853-5.973c-0.853-0.853-3.413-1.707-5.12,0.853l-0.853,0.853 c-6.827,7.68-17.067,9.387-26.453,4.267c-8.533-5.12-12.8-15.36-9.387-24.747c0.853-3.413-0.853-5.12-1.707-5.12 c-0.853-0.853-3.413-0.853-5.12,1.707l-0.853,0.853c-5.12,8.533-15.36,12.8-24.747,9.387c-9.387-3.413-15.36-11.947-14.507-22.187 v-0.853c0-2.56-1.707-4.267-3.413-4.267s-3.413,0-4.267,2.56v0.853c-3.413,9.387-11.947,15.36-22.187,14.507 c-10.24-0.853-17.92-8.533-18.773-18.773v-0.853c-0.853-3.413-2.56-4.267-4.267-4.267c-1.707,0-3.413,0.853-4.267,3.413v0.853 c-0.853,10.24-8.533,17.92-18.773,18.773c-10.24,0.853-18.773-5.12-22.187-14.507v-0.853c-0.853-2.56-3.413-2.56-4.267-2.56 c-1.707,0-3.413,1.707-3.413,4.267v0.853c0.853,10.24-5.12,18.773-14.507,22.187c-9.387,3.413-19.627-0.853-24.747-9.387 l-0.853-0.853c-1.707-2.56-4.267-2.56-5.12-1.707c-1.707,0.853-3.413,1.707-2.56,5.12c3.413,10.24,0,20.48-9.387,25.6 c-8.533,5.12-19.627,3.413-26.453-4.267c-2.56-2.56-5.12-1.707-5.973-0.853c-1.707,0.853-2.56,2.56-0.853,5.12 c5.12,9.387,3.413,19.627-3.413,26.453c-6.827,6.827-17.92,7.68-26.453,1.707c-3.413-2.56-5.12-0.853-5.973,0 c-0.853,0.853-1.707,3.413,0,5.12c7.68,7.68,8.533,18.773,2.56,26.453c-5.973,8.533-16.213,11.093-25.6,6.827 c-3.413-1.707-5.12,0-5.12,1.707c-0.853,1.707-0.853,3.413,0.853,5.12c8.533,5.973,11.093,16.213,6.827,25.6 S42.78,180.926,32.54,178.366c-3.413-0.853-4.267,1.707-5.12,2.56c-0.853,1.707-0.853,3.413,2.56,5.12 c9.387,4.267,14.507,13.653,11.947,23.893c-1.707,10.24-10.24,17.067-20.48,17.067l0,0c-3.413,0-4.267,1.707-4.267,3.413 c0,1.707,0,3.413,3.413,4.267c10.24,1.707,17.067,10.24,17.067,20.48s-6.827,18.773-17.067,20.48 c-3.413,0.853-3.413,2.56-3.413,4.267s0.853,3.413,4.267,3.413l0,0c10.24,0,18.773,6.827,20.48,17.067 c1.707,10.24-2.56,19.627-11.947,23.893c-2.56,0.853-2.56,3.413-2.56,5.12c0,1.707,1.707,3.413,4.267,2.56 c10.24-2.56,19.627,2.56,23.893,11.947c4.267,9.387,1.707,19.627-6.827,25.6c-2.56,1.707-1.707,4.267-0.853,5.12 c0.853,0.853,2.56,2.56,5.12,1.707c9.387-4.267,20.48-1.707,26.453,6.827c5.973,8.533,5.12,18.773-1.707,26.453 c-2.56,2.56-1.707,4.267,0,5.12c0.853,0.853,2.56,2.56,5.12,0.853c8.533-5.973,19.627-5.973,27.307,0.853 s9.387,17.067,4.267,26.453c-1.707,3.413-0.853,4.267,0.853,5.973c0.853,0.853,3.413,1.707,5.12-0.853l0.853-0.853 c6.827-7.68,17.067-9.387,26.453-4.267c8.533,5.12,12.8,15.36,9.387,24.747c-0.853,3.413,0.853,5.12,1.707,5.973 c0.853,0.853,3.413,0.853,5.12-1.707l0.853-0.853c5.12-8.533,15.36-12.8,24.747-9.387c9.387,3.413,15.36,11.947,14.507,22.187 v0.853c0,2.56,1.707,4.267,3.413,4.267c1.707,0,3.413,0,4.267-2.56v-0.853C214.3,476.179,221.98,471.059,230.514,471.059z"></path> <path d="M256.114,374.633c-65.707,0-119.467-53.76-119.467-119.467s53.76-119.467,119.467-119.467s119.467,53.76,119.467,119.467 S321.82,374.633,256.114,374.633z M256.114,152.766c-56.32,0-102.4,46.08-102.4,102.4s46.08,102.4,102.4,102.4 s102.4-46.08,102.4-102.4S312.434,152.766,256.114,152.766z"></path> <path d="M256.114,289.299c-18.773,0-34.133-15.36-34.133-34.133s15.36-34.133,34.133-34.133s34.133,15.36,34.133,34.133 S274.887,289.299,256.114,289.299z M256.114,238.099c-9.387,0-17.067,7.68-17.067,17.067s7.68,17.067,17.067,17.067 c9.387,0,17.067-7.68,17.067-17.067S265.5,238.099,256.114,238.099z"></path> <path d="M264.647,186.899c0,5.12-3.413,8.533-8.533,8.533c-5.12,0-8.533-3.413-8.533-8.533c0-5.12,3.413-8.533,8.533-8.533 C261.234,178.366,264.647,181.779,264.647,186.899"></path> <path d="M264.647,323.433c0,5.12-3.413,8.533-8.533,8.533c-5.12,0-8.533-3.413-8.533-8.533c0-5.12,3.413-8.533,8.533-8.533 C261.234,314.899,264.647,318.313,264.647,323.433"></path> <path d="M324.38,263.699c-5.12,0-8.533-3.413-8.533-8.533s3.413-8.533,8.533-8.533c5.12,0,8.533,3.413,8.533,8.533 S329.5,263.699,324.38,263.699"></path> <path d="M187.847,263.699c-5.12,0-8.533-3.413-8.533-8.533s3.413-8.533,8.533-8.533c5.12,0,8.533,3.413,8.533,8.533 S192.967,263.699,187.847,263.699"></path> <path d="M310.727,213.353c-3.413,3.413-8.533,3.413-11.947,0c-3.413-3.413-3.413-8.533,0-11.947c3.413-3.413,8.533-3.413,11.947,0 C314.14,203.966,314.14,209.939,310.727,213.353"></path> <path d="M214.3,309.779c-3.413,3.413-8.533,3.413-11.947,0c-3.413-3.413-3.413-8.533,0-11.947c3.413-3.413,8.533-3.413,11.947,0 C216.86,300.393,216.86,306.366,214.3,309.779"></path> <path d="M297.927,309.779c-3.413-3.413-3.413-8.533,0-11.947c3.413-3.413,8.533-3.413,11.947,0c3.413,3.413,3.413,8.533,0,11.947 C307.314,313.193,301.34,313.193,297.927,309.779"></path> <path d="M201.5,213.353c-3.413-3.413-3.413-8.533,0-11.947s8.533-3.413,11.947,0s3.413,8.533,0,11.947 C210.887,215.913,204.914,215.913,201.5,213.353"></path> </g> </g></svg>